<?xml version="1.0" encoding="UTF-8"?>
<svg width="177px" height="28px" viewBox="0 0 177 28" version="1.1" xmlns="http://www.w3.org/2000/svg" xmlns:xlink="http://www.w3.org/1999/xlink">
    <title>360智汇云logo</title>
    <g id="智汇云产品统一规范" stroke="none" stroke-width="1" fill="none" fill-rule="evenodd">
        <g id="05三级和详情页面" transform="translate(-24, -11)" fill-rule="nonzero">
            <g id="360智汇云logo" transform="translate(24, 11)">
                <g id="图形">
                    <path d="M19.0983426,21.7777778 L23.2944538,21.7777778 C23.2944538,23.4966667 21.9022315,24.8888889 20.1833426,24.8888889 L10.9550093,24.8888889 C6.66945376,24.8888889 3.10334265,21.3811111 3.11112042,17.0955556 C3.1188982,12.8061111 6.59945376,9.33333333 10.8888982,9.33333333 C13.4322315,9.33333333 15.691676,10.5544444 17.1111204,12.4444444 L20.7277871,12.4444444 C18.9738982,8.75 15.201676,6.20277778 10.8344538,6.22211167 C4.85723154,6.24944444 -0.00776846488,11.1416667 0,17.1227778 C0.00778709068,23.1311111 4.88056487,28 10.8888982,28 L20.1833426,28 C23.6211204,28 26.4055649,25.2155556 26.4055649,21.7777778 L26.4055649,14.9372222 C26.4055649,14.5911111 25.9855649,14.4161111 25.7405649,14.6611111 L18.9583426,21.4433333 C18.8377871,21.5677778 18.9233426,21.7777778 19.0983426,21.7777778" id="路径" fill="#006BFF"></path>
                    <path d="M18.666676,0 C14.9411204,0 11.6550093,1.87055556 9.69112042,4.72111111 C10.0722315,4.68611111 10.4572315,4.66666667 10.8500093,4.66666667 C11.7988982,4.66666667 12.7244538,4.77555556 13.6150093,4.97388889 C14.9722315,3.81111111 16.7377871,3.11111111 18.666676,3.11111111 C22.9638982,3.11111111 26.4444538,6.59166667 26.4444538,10.8888889 C26.4444538,11.4216667 26.3900093,11.9427778 26.2888982,12.4444444 L29.446676,12.4444444 C29.5205649,11.935 29.5555649,11.4177778 29.5555649,10.8888889 C29.5555649,4.87277778 24.6788982,0 18.666676,0" id="路径" fill="#16D28B"></path>
                    <path d="M28.7000093,10.8888889 L25.0055649,10.8888889 L17.0722315,10.8888889 C13.6344538,10.8888889 10.8500093,13.6733333 10.8500093,17.1111111 L10.8500093,23.9516667 C10.8500093,24.2977778 11.2700093,24.4727778 11.5150093,24.2277778 L18.2972315,17.4416667 C18.421676,17.3211111 18.3322315,17.1111111 18.1611204,17.1111111 L13.9611204,17.1111111 C13.9572315,15.3922222 15.3494538,14 17.0683426,14 L25.0055649,14 L28.6494538,14 C31.6633426,14 34.1444538,16.4266667 34.1444538,19.4405556 C34.1444538,22.4505556 31.7061204,24.8888889 28.7000093,24.8888889 L27.2844538,24.8888889 C26.7400093,26.1294444 25.876676,27.1988889 24.8033426,28 L28.6261204,28 C33.3394538,28 37.2633426,24.1422222 37.2555764,19.4288889 C37.2477871,14.7077778 33.4211204,10.8888889 28.7000093,10.8888889" id="路径" fill="#00ABFF"></path>
                </g>
                <path d="M157.803343,11.2894444 L157.803343,13.6227778 L164.177232,13.6227778 L158.585009,23.3372222 L175.692232,23.3372222 L173.250009,19.1061111 C172.833898,18.3827778 172.063898,17.9394444 171.227787,17.9394444 L169.882232,17.9394444 L171.659454,21.0116667 L162.613898,21.0116667 L166.891676,13.6227778 L174.136676,13.6227778 C175.423898,13.6227778 176.470009,12.5766667 176.470009,11.2894444 L157.803343,11.2894444 Z M174.914454,5.06722222 L159.358898,5.06722222 L159.358898,7.40055556 L172.58112,7.40055556 C173.868343,7.40055556 174.914454,6.35444444 174.914454,5.06722222 Z M153.175565,21.0116667 L145.592232,21.0116667 L145.592232,7.01166667 L152.397787,7.01166667 C153.685009,7.01166667 154.73112,5.96555556 154.73112,4.67833333 L143.258898,4.67833333 L143.258898,23.345 L155.508898,23.345 C155.508898,22.0577778 154.462787,21.0116667 153.175565,21.0116667 Z M136.842232,8.53222222 L136.842232,11.34 C137.246676,11.6977778 137.643343,12.1644444 137.970009,12.7711111 L138.030676,12.8880267 C138.061009,12.9467333 138.091343,13.006 138.121676,13.0666667 C138.290843,13.4313148 138.438206,13.8395704 138.546201,14.298459 L138.557232,14.3461111 C138.588343,14.4783333 138.615565,14.6105556 138.638898,14.7505556 C138.685565,15.0266667 138.724454,15.3222222 138.743898,15.6333333 C138.755565,15.7888889 138.763343,15.9483333 138.763343,16.1155556 C138.763343,16.17 138.763343,16.2244444 138.767232,16.2827778 L138.767232,16.4538889 C138.763343,16.8505556 138.73612,17.2744444 138.685565,17.7255556 C138.654454,17.9822222 138.619454,18.2466667 138.572787,18.5227778 C138.56112,18.5927778 138.549454,18.6588889 138.537787,18.7288889 C138.498898,18.9388889 138.45612,19.1527778 138.409454,19.3705556 C138.393898,19.4444444 138.378343,19.5183333 138.358898,19.5922222 C138.308343,19.8138889 138.250009,20.0433333 138.187787,20.2766667 C138.168343,20.3544444 138.145009,20.4322222 138.121676,20.5138889 C138.063343,20.7277778 137.997232,20.9455556 137.927232,21.1672222 L137.908316,21.2292578 C137.898609,21.2607111 137.888343,21.2924444 137.876676,21.3227778 C137.841676,21.4355556 137.802787,21.5483333 137.767787,21.6611111 L137.744454,21.7308622 C137.732787,21.7654889 137.72112,21.7995556 137.709454,21.8322222 C137.585009,22.1938889 137.448898,22.5711111 137.30112,22.9561111 L139.790009,22.9561111 C141.477787,18.2077778 141.547787,14.3811111 139.984454,11.5772222 C139.078343,9.97111111 137.849454,9.04944444 136.842232,8.53222222 Z M138.80612,8.19777778 C139.665565,8.19777778 140.361676,7.50166667 140.361676,6.64222222 C140.361676,5.78277778 139.665565,5.08666667 138.80612,5.08666667 C137.946676,5.08666667 137.250565,5.78277778 137.250565,6.64222222 C137.250565,7.50166667 137.946676,8.19777778 138.80612,8.19777778 Z M127.508898,13.7394444 L132.175565,13.7394444 C133.462787,13.7394444 134.508898,12.6933333 134.508898,11.4061111 L134.508898,5.06722222 L127.508898,5.06722222 L127.508898,13.7394444 Z M129.453343,7.01166667 L132.564454,7.01166667 L132.564454,10.6283333 C132.564454,11.2738889 132.043343,11.795 131.397787,11.795 L129.453343,11.795 L129.453343,7.01166667 Z M122.383343,11.7794444 L124.533898,11.7833333 L124.547612,11.8266381 C124.622889,12.0592044 125.003497,13.17071 125.57612,13.7433333 L123.242787,13.7433333 L123.238898,13.7394444 C122.686676,13.0977778 122.387232,11.7911111 122.383343,11.7794444 Z M117.005009,4.67833333 L119.41612,4.67833333 L119.415802,4.69736978 C119.413154,4.78035665 119.394083,4.90878601 119.361676,5.06722222 L125.603343,5.06722222 L125.603343,7.01166667 L122.717787,7.01166667 C122.710009,7.54833333 122.67112,8.06944444 122.60112,8.56722222 L125.599454,8.56722222 L125.599454,10.5116667 L122.083898,10.5116667 C121.27112,12.4211111 119.490009,13.7083333 116.23112,13.7394444 L116.23112,11.795 C117.891676,11.795 118.953343,11.2622222 119.536676,10.5116667 L115.838343,10.5116667 L115.838343,8.56722222 L120.295009,8.56722222 C120.380565,8.01111111 120.388343,7.47055556 120.388343,7.01166667 L118.661676,7.01166667 C118.533343,7.245 118.397232,7.44722222 118.249454,7.595 L115.838343,7.595 C116.596676,6.83666667 117.005009,5.145 117.005009,4.67833333 Z M133.73112,14.9838889 L116.620009,14.9838889 L116.620009,23.3061111 L131.397787,23.3061111 C132.685009,23.3061111 133.73112,22.26 133.73112,20.9727778 L133.73112,14.9838889 Z M131.786676,20.195 C131.786676,20.8405556 131.265565,21.3616667 130.620009,21.3616667 L118.564454,21.3616667 L118.564454,20.1172222 L131.786676,20.1172222 L131.786676,20.195 Z M131.786676,18.1727778 L118.564454,18.1727778 L118.564454,16.9283333 L131.786676,16.9283333 L131.786676,18.1727778 Z M106.263898,4.655 L97.9883426,4.655 C94.3911204,4.655 91.4627871,7.58333333 91.4627871,11.1805556 L91.4627871,16.7961111 C91.4627871,20.3933333 94.3911204,23.3216667 97.9883426,23.3216667 L106.263898,23.3216667 C109.86112,23.3216667 112.789454,20.3933333 112.789454,16.7961111 L112.789454,11.1805556 C112.789454,7.58333333 109.86112,4.655 106.263898,4.655 Z M110.005009,16.7961111 C110.005009,18.8611111 108.325009,20.5372222 106.263898,20.5372222 L97.9883426,20.5372222 C95.9233426,20.5372222 94.2472315,18.8572222 94.2472315,16.7961111 L94.2472315,11.1805556 C94.2472315,9.11555556 95.9272315,7.43944444 97.9883426,7.43944444 L106.263898,7.43944444 C108.328898,7.43944444 110.005009,9.11944444 110.005009,11.1805556 L110.005009,16.7961111 Z M84.3344538,12.3588889 L70.4472315,12.3588889 L70.4472315,11.1805556 C70.4472315,9.11555556 72.1233426,7.43944444 74.1883426,7.43944444 L87.3405649,7.43944444 C88.2622315,7.43944444 89.0127979,6.68888889 89.0127979,5.76722222 L89.0127979,4.655 L74.1883426,4.655 C70.5833426,4.655 67.6627871,7.57555556 67.6627871,11.1805556 L67.6627871,16.7961111 C67.6627871,20.4011111 70.5833426,23.3216667 74.1883426,23.3216667 L84.3305649,23.3216667 C86.916676,23.3216667 89.0127979,21.2255556 89.0127979,18.6394444 L89.0127979,17.0411111 C89.016676,14.455 86.9205649,12.3588889 84.3344538,12.3588889 Z M86.2361204,18.6394444 C86.2361204,19.6855556 85.3844538,20.5372222 84.3383426,20.5372222 L74.1961204,20.5372222 C72.1311204,20.5372222 70.4550093,18.8572222 70.4550093,16.7961111 L70.4550093,15.1394444 L84.3422315,15.1394444 C85.3883426,15.1394444 86.2400093,15.9911111 86.2400093,17.0372222 L86.2400093,18.6394444 L86.2361204,18.6394444 Z M58.6988982,4.65888889 L43.5205649,4.655 L43.5205649,5.775 C43.5205649,6.69666667 44.2672315,7.43944444 45.1850093,7.43944444 L58.6638982,7.43944444 C60.7444538,7.43944444 62.4283426,9.12722222 62.4283426,11.2038889 L62.4283426,12.3511111 L62.1911204,12.355 L45.3911204,12.355 L45.3911204,15.1394444 L62.4244538,15.1394444 L62.4283426,15.3766667 L62.4283426,16.7844444 C62.4283426,18.8572222 60.7483426,20.5372222 58.6755649,20.5372222 L45.196676,20.5372222 C44.2672315,20.5372222 43.516676,21.2877778 43.516676,22.2172222 L43.516676,23.3216667 L58.6133426,23.3216667 C60.2311204,23.3216667 61.6544538,22.7383333 62.8988982,21.7038889 C64.4700093,20.3933333 65.216676,18.3088889 65.216676,16.8661111 L65.216676,11.1766667 C65.216676,7.82444444 62.2922315,4.66277778 58.6988982,4.65888889 Z" id="360智汇云" fill="#272829"></path>
            </g>
        </g>
    </g>
</svg>